<mxfile host="app.diagrams.net" modified="2024-03-21T19:09:47.042Z" agent="Mozilla/5.0 (Windows NT 10.0; Win64; x64) AppleWebKit/537.36 (KHTML, like Gecko) Chrome/122.0.0.0 Safari/537.36" etag="RNvYyNqlSYnBp9tFIZjW" version="24.0.7" type="github">
  <diagram name="Page-1" id="b520641d-4fe3-3701-9064-5fc419738815">
    <mxGraphModel dx="2534" dy="780" grid="1" gridSize="10" guides="1" tooltips="1" connect="1" arrows="1" fold="1" page="1" pageScale="1" pageWidth="1100" pageHeight="850" background="#FFEFD6" math="0" shadow="0">
      <root>
        <mxCell id="0" />
        <mxCell id="1" parent="0" />
        <mxCell id="9Vhh2spSv1QRdql_UeOp-2" value="encargado de biblioteca" style="ellipse;whiteSpace=wrap;html=1;fillColor=#F2CC8F;strokeColor=#E07A5F;labelBackgroundColor=none;fontColor=#393C56;rounded=0;sketch=1;curveFitting=1;jiggle=2;" vertex="1" parent="1">
          <mxGeometry x="390" y="240" width="280" height="220" as="geometry" />
        </mxCell>
        <mxCell id="9Vhh2spSv1QRdql_UeOp-3" value="usuario" style="rounded=0;whiteSpace=wrap;html=1;fillColor=#F2CC8F;strokeColor=#E07A5F;labelBackgroundColor=none;fontColor=#393C56;sketch=1;curveFitting=1;jiggle=2;" vertex="1" parent="1">
          <mxGeometry x="-60" y="290" width="160" height="90" as="geometry" />
        </mxCell>
        <mxCell id="9Vhh2spSv1QRdql_UeOp-4" value="" style="endArrow=classic;html=1;rounded=0;labelBackgroundColor=none;strokeColor=#E07A5F;fontColor=default;exitX=0.994;exitY=0.167;exitDx=0;exitDy=0;exitPerimeter=0;entryX=0.014;entryY=0.332;entryDx=0;entryDy=0;entryPerimeter=0;sketch=1;curveFitting=1;jiggle=2;" edge="1" parent="1" source="9Vhh2spSv1QRdql_UeOp-3" target="9Vhh2spSv1QRdql_UeOp-2">
          <mxGeometry width="50" height="50" relative="1" as="geometry">
            <mxPoint x="100" y="300" as="sourcePoint" />
            <mxPoint x="400" y="300" as="targetPoint" />
          </mxGeometry>
        </mxCell>
        <mxCell id="9Vhh2spSv1QRdql_UeOp-5" value="Presentar carnet" style="edgeLabel;html=1;align=center;verticalAlign=middle;resizable=0;points=[];labelBackgroundColor=none;fontColor=#393C56;rounded=0;sketch=1;curveFitting=1;jiggle=2;" vertex="1" connectable="0" parent="9Vhh2spSv1QRdql_UeOp-4">
          <mxGeometry y="-2" relative="1" as="geometry">
            <mxPoint as="offset" />
          </mxGeometry>
        </mxCell>
        <mxCell id="9Vhh2spSv1QRdql_UeOp-6" value="" style="endArrow=classic;html=1;rounded=0;labelBackgroundColor=none;strokeColor=#E07A5F;fontColor=default;exitX=1.013;exitY=0.411;exitDx=0;exitDy=0;exitPerimeter=0;entryX=-0.007;entryY=0.432;entryDx=0;entryDy=0;entryPerimeter=0;sketch=1;curveFitting=1;jiggle=2;" edge="1" parent="1" source="9Vhh2spSv1QRdql_UeOp-3" target="9Vhh2spSv1QRdql_UeOp-2">
          <mxGeometry width="50" height="50" relative="1" as="geometry">
            <mxPoint x="100" y="320" as="sourcePoint" />
            <mxPoint x="390" y="320" as="targetPoint" />
            <Array as="points" />
          </mxGeometry>
        </mxCell>
        <mxCell id="9Vhh2spSv1QRdql_UeOp-7" value="presentar ficha de solicitud de libros" style="edgeLabel;html=1;align=center;verticalAlign=middle;resizable=0;points=[];labelBackgroundColor=none;fontColor=#393C56;rounded=0;sketch=1;curveFitting=1;jiggle=2;" vertex="1" connectable="0" parent="9Vhh2spSv1QRdql_UeOp-6">
          <mxGeometry x="0.0133" y="-3" relative="1" as="geometry">
            <mxPoint as="offset" />
          </mxGeometry>
        </mxCell>
        <mxCell id="9Vhh2spSv1QRdql_UeOp-9" value="" style="endArrow=classic;html=1;rounded=0;labelBackgroundColor=none;strokeColor=#E07A5F;fontColor=default;entryX=0;entryY=0.25;entryDx=0;entryDy=0;exitX=1;exitY=0;exitDx=0;exitDy=0;sketch=1;curveFitting=1;jiggle=2;" edge="1" parent="1" source="9Vhh2spSv1QRdql_UeOp-2" target="9Vhh2spSv1QRdql_UeOp-20">
          <mxGeometry width="50" height="50" relative="1" as="geometry">
            <mxPoint x="650" y="280" as="sourcePoint" />
            <mxPoint x="890" y="300" as="targetPoint" />
            <Array as="points" />
          </mxGeometry>
        </mxCell>
        <mxCell id="9Vhh2spSv1QRdql_UeOp-14" value="comprobar disponibilidad de libros requeridos" style="edgeLabel;html=1;align=center;verticalAlign=middle;resizable=0;points=[];labelBackgroundColor=none;fontColor=#393C56;rounded=0;sketch=1;curveFitting=1;jiggle=2;" vertex="1" connectable="0" parent="9Vhh2spSv1QRdql_UeOp-9">
          <mxGeometry x="0.0727" y="2" relative="1" as="geometry">
            <mxPoint x="13" y="-8" as="offset" />
          </mxGeometry>
        </mxCell>
        <mxCell id="9Vhh2spSv1QRdql_UeOp-18" value="" style="endArrow=classic;html=1;rounded=0;labelBackgroundColor=none;strokeColor=#E07A5F;fontColor=default;entryX=0.02;entryY=0.691;entryDx=0;entryDy=0;entryPerimeter=0;exitX=1;exitY=0.5;exitDx=0;exitDy=0;sketch=1;curveFitting=1;jiggle=2;" edge="1" parent="1" source="9Vhh2spSv1QRdql_UeOp-2" target="9Vhh2spSv1QRdql_UeOp-20">
          <mxGeometry width="50" height="50" relative="1" as="geometry">
            <mxPoint x="660" y="360" as="sourcePoint" />
            <mxPoint x="890" y="360" as="targetPoint" />
          </mxGeometry>
        </mxCell>
        <mxCell id="9Vhh2spSv1QRdql_UeOp-19" value="actualizar inventario de libros" style="edgeLabel;html=1;align=center;verticalAlign=middle;resizable=0;points=[];labelBackgroundColor=none;fontColor=#393C56;rounded=0;sketch=1;curveFitting=1;jiggle=2;" vertex="1" connectable="0" parent="9Vhh2spSv1QRdql_UeOp-18">
          <mxGeometry y="-1" relative="1" as="geometry">
            <mxPoint x="1" as="offset" />
          </mxGeometry>
        </mxCell>
        <mxCell id="9Vhh2spSv1QRdql_UeOp-20" value="Almacen de datos" style="shape=internalStorage;whiteSpace=wrap;html=1;backgroundOutline=1;fillColor=#F2CC8F;strokeColor=#E07A5F;labelBackgroundColor=none;fontColor=#393C56;rounded=0;sketch=1;curveFitting=1;jiggle=2;" vertex="1" parent="1">
          <mxGeometry x="900" y="230" width="170" height="100" as="geometry" />
        </mxCell>
        <mxCell id="9Vhh2spSv1QRdql_UeOp-21" style="edgeStyle=orthogonalEdgeStyle;rounded=0;orthogonalLoop=1;jettySize=auto;html=1;exitX=0.5;exitY=1;exitDx=0;exitDy=0;labelBackgroundColor=none;strokeColor=#E07A5F;fontColor=default;sketch=1;curveFitting=1;jiggle=2;" edge="1" parent="1" source="9Vhh2spSv1QRdql_UeOp-20" target="9Vhh2spSv1QRdql_UeOp-20">
          <mxGeometry relative="1" as="geometry" />
        </mxCell>
        <mxCell id="9Vhh2spSv1QRdql_UeOp-22" style="edgeStyle=orthogonalEdgeStyle;rounded=0;orthogonalLoop=1;jettySize=auto;html=1;exitX=0.5;exitY=1;exitDx=0;exitDy=0;labelBackgroundColor=none;strokeColor=#E07A5F;fontColor=default;sketch=1;curveFitting=1;jiggle=2;" edge="1" parent="1" source="9Vhh2spSv1QRdql_UeOp-3" target="9Vhh2spSv1QRdql_UeOp-3">
          <mxGeometry relative="1" as="geometry" />
        </mxCell>
        <mxCell id="9Vhh2spSv1QRdql_UeOp-23" value="" style="endArrow=classic;html=1;rounded=0;labelBackgroundColor=none;strokeColor=#E07A5F;fontColor=default;entryX=0;entryY=1;entryDx=0;entryDy=0;exitX=0.975;exitY=0.673;exitDx=0;exitDy=0;exitPerimeter=0;sketch=1;curveFitting=1;jiggle=2;" edge="1" parent="1" source="9Vhh2spSv1QRdql_UeOp-2" target="9Vhh2spSv1QRdql_UeOp-20">
          <mxGeometry width="50" height="50" relative="1" as="geometry">
            <mxPoint x="650" y="400" as="sourcePoint" />
            <mxPoint x="890" y="390" as="targetPoint" />
          </mxGeometry>
        </mxCell>
        <mxCell id="9Vhh2spSv1QRdql_UeOp-24" value="Guardar ficha de prestamo" style="edgeLabel;html=1;align=center;verticalAlign=middle;resizable=0;points=[];labelBackgroundColor=none;fontColor=#393C56;rounded=0;sketch=1;curveFitting=1;jiggle=2;" vertex="1" connectable="0" parent="9Vhh2spSv1QRdql_UeOp-23">
          <mxGeometry x="-0.0078" y="-1" relative="1" as="geometry">
            <mxPoint as="offset" />
          </mxGeometry>
        </mxCell>
        <mxCell id="9Vhh2spSv1QRdql_UeOp-25" value="" style="endArrow=classic;html=1;rounded=0;labelBackgroundColor=none;strokeColor=#E07A5F;fontColor=default;entryX=0.994;entryY=0.911;entryDx=0;entryDy=0;entryPerimeter=0;exitX=-0.004;exitY=0.595;exitDx=0;exitDy=0;exitPerimeter=0;sketch=1;curveFitting=1;jiggle=2;" edge="1" parent="1" source="9Vhh2spSv1QRdql_UeOp-2" target="9Vhh2spSv1QRdql_UeOp-3">
          <mxGeometry width="50" height="50" relative="1" as="geometry">
            <mxPoint x="400" y="360" as="sourcePoint" />
            <mxPoint x="100" y="360" as="targetPoint" />
          </mxGeometry>
        </mxCell>
        <mxCell id="9Vhh2spSv1QRdql_UeOp-28" value="acepta/deniega peticiÃ³n de libros" style="edgeLabel;html=1;align=center;verticalAlign=middle;resizable=0;points=[];labelBackgroundColor=none;fontColor=#393C56;rounded=0;sketch=1;curveFitting=1;jiggle=2;" vertex="1" connectable="0" parent="9Vhh2spSv1QRdql_UeOp-25">
          <mxGeometry x="-0.0316" y="-2" relative="1" as="geometry">
            <mxPoint as="offset" />
          </mxGeometry>
        </mxCell>
        <mxCell id="9Vhh2spSv1QRdql_UeOp-29" value="acepta disponibilidad de libros&lt;div&gt;&lt;br&gt;&lt;/div&gt;" style="endArrow=classic;html=1;rounded=0;exitX=0;exitY=0.5;exitDx=0;exitDy=0;labelBackgroundColor=none;strokeColor=#E07A5F;fontColor=default;entryX=0.996;entryY=0.368;entryDx=0;entryDy=0;entryPerimeter=0;sketch=1;curveFitting=1;jiggle=2;" edge="1" parent="1" source="9Vhh2spSv1QRdql_UeOp-20" target="9Vhh2spSv1QRdql_UeOp-2">
          <mxGeometry x="0.0006" y="9" width="50" height="50" relative="1" as="geometry">
            <mxPoint x="900" y="320" as="sourcePoint" />
            <mxPoint x="670" y="320" as="targetPoint" />
            <Array as="points" />
            <mxPoint as="offset" />
          </mxGeometry>
        </mxCell>
      </root>
    </mxGraphModel>
  </diagram>
</mxfile>
